<?xml version="1.0" ?><svg viewBox="0 0 64 64" xmlns="http://www.w3.org/2000/svg"><g id="Product_value_researching"><path d="M30.5071,29.5085a17.0212,17.0212,0,0,1,5.854-3.824L45.2432,15.382a3.6122,3.6122,0,0,0,.2573-.3767h-9.88L30.32,29.7153C30.3852,29.6479,30.4407,29.5749,30.5071,29.5085Z"/><path d="M45.9878,12.5053a3.6118,3.6118,0,0,0-.5091-1.3557L41.15,4.3539A3.4018,3.4018,0,0,0,38.2805,2.78h-8.76l5.9241,9.7256Z"/><path d="M2.5481,15.0053a3.6278,3.6278,0,0,0,.2573.3767L19.4761,34.8,12.3425,15.0053Z"/><path d="M26.5937,2.78H19.6965L15.18,12.5053h9.98a1.25,1.25,0,0,1,0,2.5H15L23.1824,37.711a.85.85,0,0,0,1.5994,0l8.5824-23.8164Z"/><path d="M16.94,2.78H9.7683A3.4027,3.4027,0,0,0,6.8989,4.3539L2.57,11.15a3.6088,3.6088,0,0,0-.5093,1.3557h10.362Z"/><path d="M61.4675,56.6689,54.5176,49.6a14.4038,14.4038,0,1,0-4.4944,4.2737L57.0869,61.05a3.0976,3.0976,0,0,0,4.3806-4.3806ZM42.5837,49.0036a7.4186,7.4186,0,1,1,7.4185-7.4187A7.4187,7.4187,0,0,1,42.5837,49.0036Z"/></g></svg>