<svg id="Capa_1" fill="#121213" enable-background="new 0 0 512.001 512.001" height="512" viewBox="0 0 512.001 512.001" width="512" xmlns="http://www.w3.org/2000/svg"><g><path d="m103.913 412.001h-60c-8.28 0-15 6.72-15 15v70c0 8.29 6.72 15 15 15h60c8.29 0 15-6.71 15-15v-70c0-8.28-6.71-15-15-15z"/><path d="m223.913 337.841h-60c-8.28 0-15 6.72-15 15v144.16c0 8.29 6.72 15 15 15h60c8.29 0 15-6.71 15-15v-144.16c0-8.28-6.71-15-15-15z"/><path d="m343.913 226.651h-60c-8.28 0-15 6.71-15 15v255.35c0 8.29 6.72 15 15 15h60c8.29 0 15-6.71 15-15v-255.35c0-8.29-6.71-15-15-15z"/><path d="m463.913 116.041h-60c-8.28 0-15 6.71-15 15v365.96c0 8.29 6.72 15 15 15h60c8.29 0 15-6.71 15-15v-365.96c0-8.29-6.71-15-15-15z"/><path d="m476.517 2.595c-6.853-4.656-16.182-2.875-20.837 3.978l-33.611 49.467h-51.248c-5.581 0-10.701 3.099-13.289 8.043l-53.694 102.566h-49.921c-5.476 0-10.517 2.984-13.151 7.785l-56.729 103.408h-50.12c-4.939 0-9.561 2.431-12.359 6.5l-46.53 67.66h-31.111c-8.284 0-15 6.716-15 15s6.716 15 15 15h39c4.938 0 9.561-2.431 12.359-6.5l46.53-67.66h51.111c5.476 0 10.517-2.984 13.151-7.785l56.729-103.408h50.12c5.581 0 10.701-3.099 13.289-8.043l53.694-102.567h50.112c4.969 0 9.615-2.46 12.407-6.57l38.075-56.037c4.656-6.852 2.875-16.181-3.977-20.837z"/></g></svg>