<svg id="Capa_1" enable-background="new 0 0 512 512" height="512" viewBox="0 0 512 512" width="512" xmlns="http://www.w3.org/2000/svg" fill="#121213"><g><g><path d="m427.19 241h-342.38c-8.28 0-15 6.72-15 15v157.84c0 54.12 44.04 98.16 98.17 98.16h176.05c54.12 0 98.16-44.04 98.16-98.16v-157.84c0-8.28-6.72-15-15-15zm-147.89 127.2h-8.3v31.6c0 8.29-6.72 15-15 15s-15-6.71-15-15v-31.6h-8.3c-8.29 0-15-6.72-15-15 0-8.29 6.71-15 15-15h46.6c8.29 0 15 6.71 15 15 0 8.28-6.71 15-15 15z"/></g><g><path d="m256 0c-86.12 0-156.19 70.07-156.19 156.19v54.81h30v-54.81c0-69.58 56.61-126.19 126.19-126.19s126.19 56.61 126.19 126.19v54.81h30v-54.81c0-86.12-70.07-156.19-156.19-156.19z"/></g></g></svg>